<svg xmlns="http://www.w3.org/2000/svg" xmlns:xlink="http://www.w3.org/1999/xlink" width="500" zoomAndPan="magnify" viewBox="0 0 375 374.999991" height="500" preserveAspectRatio="xMidYMid meet" version="1.0"><defs><clipPath id="b292905505"><path d="M 0 1.25 L 375 1.25 L 375 374 L 0 374 Z M 0 1.25 " clip-rule="nonzero"/></clipPath><clipPath id="f3e923a158"><path d="M 67.121094 66 L 307.871094 66 L 307.871094 309.5 L 67.121094 309.5 Z M 67.121094 66 " clip-rule="nonzero"/></clipPath><clipPath id="52abb94d46"><path d="M 73 65.75 L 307.871094 65.75 L 307.871094 303 L 73 303 Z M 73 65.75 " clip-rule="nonzero"/></clipPath></defs><g clip-path="url(#b292905505)"><path fill="#cc4e00" d="M 374.671875 190.300781 C 374.6875 189.363281 374.695312 188.421875 374.695312 187.332031 L 374.691406 187.007812 C 374.691406 176.695312 366.59375 168.28125 356.410156 167.789062 C 366.191406 164.984375 372.164062 154.976562 369.835938 144.949219 C 369.625 144.015625 369.402344 143.097656 369.171875 142.179688 C 366.683594 132.1875 356.789062 125.988281 346.808594 127.957031 C 355.640625 122.882812 359.03125 111.714844 354.347656 102.539062 C 353.925781 101.703125 353.488281 100.863281 353.050781 100.027344 C 348.238281 90.945312 337.171875 87.296875 327.949219 91.589844 C 335.292969 84.546875 335.90625 72.910156 329.179688 65.128906 C 328.5625 64.417969 327.945312 63.714844 327.320312 63.011719 C 320.46875 55.320312 308.839844 54.425781 300.910156 60.808594 C 306.382812 52.238281 304.222656 40.785156 295.847656 34.816406 C 295.070312 34.257812 294.289062 33.710938 293.496094 33.167969 C 285.007812 27.335938 273.488281 29.242188 267.308594 37.351562 C 270.59375 27.691406 265.730469 17.058594 256.132812 13.277344 C 255.261719 12.933594 254.378906 12.597656 253.496094 12.265625 C 243.851562 8.628906 233.109375 13.253906 229.0625 22.621094 C 229.925781 12.460938 222.652344 3.300781 212.429688 1.941406 C 211.496094 1.816406 210.5625 1.699219 209.625 1.585938 C 199.429688 0.410156 190.125 7.414062 188.414062 17.441406 C 186.8125 7.402344 177.601562 0.269531 167.371094 1.363281 C 166.429688 1.46875 165.492188 1.570312 164.554688 1.683594 C 154.339844 2.933594 146.976562 11.992188 147.707031 22.144531 C 143.75 12.757812 133.085938 8.039062 123.410156 11.554688 C 122.519531 11.878906 121.625 12.214844 120.742188 12.554688 C 111.140625 16.222656 106.175781 26.753906 109.304688 36.421875 C 103.207031 28.304688 91.742188 26.292969 83.207031 32.015625 C 82.421875 32.542969 81.644531 33.074219 80.867188 33.613281 C 72.417969 39.480469 70.117188 50.910156 75.488281 59.554688 C 67.632812 53.101562 56.003906 53.867188 49.074219 61.46875 C 48.4375 62.167969 47.804688 62.871094 47.179688 63.582031 C 40.363281 71.300781 40.859375 82.960938 48.148438 90.074219 C 38.964844 85.660156 27.839844 89.179688 22.925781 98.230469 C 22.46875 99.0625 22.023438 99.898438 21.585938 100.742188 C 16.808594 109.878906 20.085938 121.085938 28.886719 126.242188 C 18.902344 124.160156 8.933594 130.25 6.332031 140.238281 C 6.097656 141.148438 5.863281 142.0625 5.640625 142.976562 C 3.203125 152.972656 9.0625 163.058594 18.816406 165.960938 C 8.652344 166.351562 0.460938 174.648438 0.328125 184.9375 C 0.308594 185.785156 0.304688 186.628906 0.304688 187.480469 L 0.304688 187.722656 C 0.304688 198.144531 8.597656 206.519531 18.941406 206.832031 C 8.925781 209.460938 2.757812 219.609375 5.101562 229.761719 C 5.316406 230.683594 5.535156 231.605469 5.761719 232.515625 C 8.238281 242.515625 18.101562 248.738281 28.109375 246.777344 C 19.261719 251.847656 15.859375 263.007812 20.523438 272.191406 C 20.949219 273.027344 21.382812 273.867188 21.820312 274.691406 C 26.625 283.789062 37.679688 287.453125 46.90625 283.179688 C 39.550781 290.214844 38.929688 301.855469 45.648438 309.640625 C 46.265625 310.351562 46.878906 311.0625 47.503906 311.765625 C 54.339844 319.453125 65.96875 320.367188 73.90625 314 C 68.414062 322.574219 70.574219 334.054688 78.96875 340.027344 C 79.734375 340.570312 80.496094 341.105469 81.265625 341.632812 C 89.75 347.496094 101.277344 345.609375 107.472656 337.507812 C 104.179688 347.164062 109.019531 357.796875 118.601562 361.589844 C 119.480469 361.933594 120.363281 362.28125 121.242188 362.609375 C 130.894531 366.265625 141.636719 361.65625 145.699219 352.289062 C 144.820312 362.449219 152.078125 371.617188 162.296875 372.996094 C 163.234375 373.117188 164.167969 373.234375 165.105469 373.351562 C 175.324219 374.570312 184.613281 367.546875 186.339844 357.523438 C 187.820312 366.890625 195.929688 373.742188 205.3125 373.742188 C 205.988281 373.742188 206.671875 373.710938 207.355469 373.632812 C 208.292969 373.535156 209.234375 373.429688 210.167969 373.316406 C 220.390625 372.078125 227.765625 363.039062 227.046875 352.878906 C 230.992188 362.269531 241.65625 367.015625 251.339844 363.5 C 252.222656 363.175781 253.109375 362.851562 253.988281 362.515625 C 263.601562 358.859375 268.585938 348.339844 265.472656 338.660156 C 271.566406 346.808594 283.046875 348.828125 291.582031 343.085938 C 292.359375 342.574219 293.128906 342.042969 293.894531 341.511719 C 302.359375 335.660156 304.671875 324.234375 299.3125 315.574219 C 307.175781 322.050781 318.8125 321.285156 325.746094 313.675781 C 326.375 312.988281 327.003906 312.292969 327.621094 311.597656 C 334.457031 303.886719 333.980469 292.222656 326.695312 285.089844 C 335.863281 289.523438 347.003906 286.019531 351.941406 276.980469 C 352.390625 276.148438 352.839844 275.316406 353.273438 274.476562 C 358.074219 265.351562 354.808594 254.125 346.015625 248.957031 C 356.003906 251.0625 365.980469 244.980469 368.59375 235.003906 C 368.832031 234.085938 369.0625 233.167969 369.289062 232.257812 C 371.742188 222.261719 365.894531 212.167969 356.144531 209.246094 C 366.316406 208.875 374.523438 200.585938 374.671875 190.300781 Z M 374.671875 190.300781 " fill-opacity="1" fill-rule="nonzero"/></g><g clip-path="url(#f3e923a158)"><path fill="#353535" d="M 209.429688 297.433594 C 211.480469 298.746094 213.609375 299.917969 215.8125 300.953125 C 220.742188 303.320312 225.878906 305.070312 231.226562 306.207031 C 236.832031 307.425781 242.492188 308.257812 248.210938 308.695312 C 254.050781 309.183594 260.867188 309.457031 268.386719 309.457031 L 307.328125 309.457031 L 307.328125 246.265625 L 281.90625 246.265625 C 281.324219 246.273438 280.75 246.21875 280.175781 246.105469 L 279.691406 245.832031 C 278.691406 245.089844 277.789062 244.242188 276.984375 243.289062 C 275.046875 240.9375 273.28125 238.464844 271.683594 235.871094 L 231.066406 171.21875 L 254.429688 145.445312 C 257.191406 142.414062 259.894531 139.652344 262.4375 137.214844 C 264.386719 135.382812 266.457031 133.703125 268.65625 132.179688 C 269.976562 131.300781 271.382812 130.597656 272.875 130.070312 C 273.699219 129.792969 274.546875 129.667969 275.417969 129.691406 L 299.757812 129.691406 L 299.757812 66.878906 L 67.121094 66.878906 L 67.121094 129.90625 L 92.433594 129.90625 L 92.433594 246.265625 L 67.121094 246.265625 L 67.121094 309.457031 L 209.429688 309.457031 Z M 209.429688 297.433594 " fill-opacity="0.3" fill-rule="nonzero"/></g><g clip-path="url(#52abb94d46)"><path fill="#a8c1ef" d="M 209.96875 288.390625 C 213.160156 290.886719 216.585938 292.996094 220.246094 294.726562 C 224.988281 296.988281 229.929688 298.664062 235.066406 299.761719 C 240.542969 300.988281 246.078125 301.800781 251.671875 302.199219 C 257.460938 302.6875 264.167969 302.957031 271.632812 302.957031 L 307.871094 302.957031 L 307.871094 245.183594 L 285.152344 245.183594 C 284.277344 245.195312 283.410156 245.105469 282.558594 244.914062 C 282.136719 244.765625 281.757812 244.550781 281.421875 244.261719 C 280.21875 243.417969 279.15625 242.425781 278.230469 241.285156 C 276.171875 238.832031 274.3125 236.230469 272.660156 233.488281 L 230.902344 167.160156 L 255.675781 139.871094 C 258.488281 136.78125 261.191406 133.96875 263.84375 131.476562 C 265.871094 129.519531 268.054688 127.753906 270.386719 126.171875 C 271.898438 125.160156 273.503906 124.328125 275.199219 123.679688 C 276.332031 123.339844 277.484375 123.179688 278.664062 123.191406 L 300.296875 123.191406 L 300.296875 65.796875 L 73.070312 65.796875 L 73.070312 123.410156 L 98.382812 123.410156 L 98.382812 245.183594 L 73.070312 245.183594 L 73.070312 302.957031 L 209.96875 302.957031 Z M 184.441406 127.089844 L 184.441406 123.410156 L 187.792969 123.410156 Z M 184.441406 127.089844 " fill-opacity="1" fill-rule="nonzero"/><path fill="#000000" d="M 306.84375 245.183594 L 306.679688 245.183594 L 306.679688 251.03125 L 297.105469 251.03125 L 297.105469 245.183594 L 296.945312 245.183594 L 296.945312 251.03125 L 287.371094 251.03125 L 287.371094 245.183594 L 287.207031 245.183594 L 287.207031 251.03125 L 277.636719 251.03125 L 277.636719 241.449219 L 278.390625 241.449219 L 278.230469 241.285156 L 277.636719 241.285156 L 277.636719 240.582031 L 277.472656 240.363281 L 277.472656 241.285156 L 267.898438 241.285156 L 267.898438 231.703125 L 271.523438 231.703125 L 271.414062 231.539062 L 267.898438 231.539062 L 267.898438 225.90625 L 267.738281 225.636719 L 267.738281 231.539062 L 258.164062 231.539062 L 258.164062 221.953125 L 265.410156 221.953125 L 265.304688 221.792969 L 258.164062 221.792969 L 258.164062 212.207031 L 259.246094 212.207031 L 259.246094 212.046875 L 258.21875 212.046875 L 258.21875 210.421875 L 258.054688 210.207031 L 258.054688 212.046875 L 248.425781 212.046875 L 248.425781 202.460938 L 253.132812 202.460938 L 253.023438 202.300781 L 248.425781 202.300781 L 248.425781 194.9375 L 248.265625 194.71875 L 248.265625 202.300781 L 238.691406 202.300781 L 238.691406 192.714844 L 247.019531 192.714844 L 246.914062 192.554688 L 238.691406 192.554688 L 238.691406 182.96875 L 240.855469 182.96875 L 240.746094 182.808594 L 238.691406 182.808594 L 238.691406 179.503906 L 238.527344 179.234375 L 238.527344 182.808594 L 228.953125 182.808594 L 228.953125 173.222656 L 234.742188 173.222656 L 234.632812 173.0625 L 228.953125 173.0625 L 228.953125 163.476562 L 234.253906 163.476562 L 234.363281 163.316406 L 228.953125 163.316406 L 228.953125 153.730469 L 238.527344 153.730469 L 238.527344 158.765625 L 238.691406 158.605469 L 238.691406 153.730469 L 243.070312 153.730469 L 243.234375 153.566406 L 238.691406 153.566406 L 238.691406 143.984375 L 248.265625 143.984375 L 248.265625 148.046875 L 248.425781 147.882812 L 248.425781 143.984375 L 251.941406 143.984375 L 252.105469 143.820312 L 248.425781 143.820312 L 248.425781 134.238281 L 258 134.238281 L 258 137.378906 L 258.164062 137.160156 L 258.164062 134.238281 L 260.976562 134.238281 L 261.136719 134.074219 L 258.164062 134.074219 L 258.164062 124.492188 L 267.738281 124.492188 L 267.738281 128.121094 L 267.898438 128.011719 L 267.898438 124.492188 L 273.308594 124.492188 L 273.6875 124.328125 L 267.898438 124.328125 L 267.898438 114.746094 L 277.472656 114.746094 L 277.472656 123.246094 L 277.636719 123.246094 L 277.636719 114.746094 L 287.207031 114.746094 L 287.207031 123.191406 L 287.371094 123.191406 L 287.371094 114.746094 L 296.945312 114.746094 L 296.945312 123.191406 L 297.105469 123.191406 L 297.105469 114.746094 L 300.296875 114.746094 L 300.296875 114.582031 L 297.105469 114.582031 L 297.105469 105 L 300.296875 105 L 300.296875 104.835938 L 297.105469 104.835938 L 297.105469 95.253906 L 300.296875 95.253906 L 300.296875 95.089844 L 297.105469 95.089844 L 297.105469 85.507812 L 300.296875 85.507812 L 300.296875 85.34375 L 297.105469 85.34375 L 297.105469 75.761719 L 300.296875 75.761719 L 300.296875 75.597656 L 297.105469 75.597656 L 297.105469 66.015625 L 300.296875 66.015625 L 300.296875 65.851562 L 73.070312 65.851562 L 73.070312 123.410156 L 73.179688 123.410156 L 73.179688 114.746094 L 82.753906 114.746094 L 82.753906 123.410156 L 82.914062 123.410156 L 82.914062 114.746094 L 92.488281 114.746094 L 92.488281 123.410156 L 92.652344 123.410156 L 92.652344 114.746094 L 102.222656 114.746094 L 102.222656 124.328125 L 98.382812 124.328125 L 98.382812 124.492188 L 102.222656 124.492188 L 102.222656 134.074219 L 98.382812 134.074219 L 98.382812 134.238281 L 102.222656 134.238281 L 102.222656 143.820312 L 98.382812 143.820312 L 98.382812 143.984375 L 102.222656 143.984375 L 102.222656 153.566406 L 98.382812 153.566406 L 98.382812 153.730469 L 102.222656 153.730469 L 102.222656 163.316406 L 98.382812 163.316406 L 98.382812 163.476562 L 102.222656 163.476562 L 102.222656 173.0625 L 98.382812 173.0625 L 98.382812 173.222656 L 102.222656 173.222656 L 102.222656 182.808594 L 98.382812 182.808594 L 98.382812 182.96875 L 102.222656 182.96875 L 102.222656 192.554688 L 98.382812 192.554688 L 98.382812 192.714844 L 102.222656 192.714844 L 102.222656 202.300781 L 98.382812 202.300781 L 98.382812 202.460938 L 102.222656 202.460938 L 102.222656 212.046875 L 98.382812 212.046875 L 98.382812 212.207031 L 102.222656 212.207031 L 102.222656 221.792969 L 98.382812 221.792969 L 98.382812 221.953125 L 102.222656 221.953125 L 102.222656 231.539062 L 98.382812 231.539062 L 98.382812 231.703125 L 102.222656 231.703125 L 102.222656 241.285156 L 98.382812 241.285156 L 98.382812 241.449219 L 102.222656 241.449219 L 102.222656 251.03125 L 92.652344 251.03125 L 92.652344 245.183594 L 92.488281 245.183594 L 92.488281 251.03125 L 82.914062 251.03125 L 82.914062 245.183594 L 82.753906 245.183594 L 82.753906 251.03125 L 73.179688 251.03125 L 73.179688 245.183594 L 73.070312 245.183594 L 73.070312 302.957031 L 73.179688 302.957031 L 73.179688 299.925781 L 82.753906 299.925781 L 82.753906 302.957031 L 82.914062 302.957031 L 82.914062 299.925781 L 92.488281 299.925781 L 92.488281 302.957031 L 92.652344 302.957031 L 92.652344 299.925781 L 102.222656 299.925781 L 102.222656 302.957031 L 102.386719 302.957031 L 102.386719 299.925781 L 111.960938 299.925781 L 111.960938 302.957031 L 112.121094 302.957031 L 112.121094 299.925781 L 121.695312 299.925781 L 121.695312 302.957031 L 121.859375 302.957031 L 121.859375 299.925781 L 131.433594 299.925781 L 131.433594 302.957031 L 131.59375 302.957031 L 131.59375 299.925781 L 141.167969 299.925781 L 141.167969 302.957031 L 141.332031 302.957031 L 141.332031 299.925781 L 150.90625 299.925781 L 150.90625 302.957031 L 151.066406 302.957031 L 151.066406 299.925781 L 160.640625 299.925781 L 160.640625 302.957031 L 160.804688 302.957031 L 160.804688 299.925781 L 170.375 299.925781 L 170.375 302.957031 L 170.539062 302.957031 L 170.539062 299.925781 L 180.113281 299.925781 L 180.113281 302.957031 L 180.273438 302.957031 L 180.273438 299.925781 L 189.847656 299.925781 L 189.847656 302.957031 L 190.011719 302.957031 L 190.011719 299.925781 L 199.585938 299.925781 L 199.585938 302.957031 L 199.746094 302.957031 L 199.746094 299.925781 L 209.320312 299.925781 L 209.320312 302.957031 L 209.484375 302.957031 L 209.484375 299.925781 L 209.96875 299.925781 L 209.96875 299.761719 L 209.484375 299.761719 L 209.484375 290.179688 L 209.96875 290.179688 L 209.96875 290.015625 L 209.484375 290.015625 L 209.484375 280.433594 L 219.058594 280.433594 L 219.058594 290.015625 L 212.1875 290.015625 L 212.402344 290.179688 L 219.058594 290.179688 L 219.058594 294.1875 L 219.21875 294.1875 L 219.21875 290.125 L 228.792969 290.125 L 228.792969 298.085938 L 228.953125 298.085938 L 228.953125 290.179688 L 238.527344 290.179688 L 238.527344 299.761719 L 235.066406 299.761719 L 235.769531 299.925781 L 238.527344 299.925781 L 238.527344 300.46875 L 238.691406 300.46875 L 238.691406 299.871094 L 248.265625 299.871094 L 248.265625 301.875 L 248.425781 301.875 L 248.425781 299.871094 L 258 299.871094 L 258 302.578125 L 258.164062 302.578125 L 258.164062 299.871094 L 267.738281 299.871094 L 267.738281 302.957031 L 267.898438 302.957031 L 267.898438 299.925781 L 277.472656 299.925781 L 277.472656 302.957031 L 277.636719 302.957031 L 277.636719 299.925781 L 287.207031 299.925781 L 287.207031 302.957031 L 287.371094 302.957031 L 287.371094 299.925781 L 296.945312 299.925781 L 296.945312 302.957031 L 297.105469 302.957031 L 297.105469 299.925781 L 306.679688 299.925781 L 306.679688 302.957031 L 306.84375 302.957031 L 306.84375 299.925781 L 307.871094 299.925781 L 307.871094 299.761719 L 306.84375 299.761719 L 306.84375 290.179688 L 307.871094 290.179688 L 307.871094 290.015625 L 306.84375 290.015625 L 306.84375 280.433594 L 307.871094 280.433594 L 307.871094 280.269531 L 306.84375 280.269531 L 306.84375 270.6875 L 307.871094 270.6875 L 307.871094 270.523438 L 306.84375 270.523438 L 306.84375 260.941406 L 307.871094 260.941406 L 307.871094 260.777344 L 306.84375 260.777344 L 306.84375 251.195312 L 307.871094 251.195312 L 307.871094 251.03125 L 306.84375 251.03125 Z M 287.371094 66.015625 L 296.945312 66.015625 L 296.945312 75.597656 L 287.371094 75.597656 Z M 287.371094 75.761719 L 296.945312 75.761719 L 296.945312 85.34375 L 287.371094 85.34375 Z M 287.371094 85.507812 L 296.945312 85.507812 L 296.945312 95.089844 L 287.371094 95.089844 Z M 287.371094 100.179688 L 287.371094 95.253906 L 296.945312 95.253906 L 296.945312 104.835938 L 287.371094 104.835938 Z M 287.371094 105 L 296.945312 105 L 296.945312 114.582031 L 287.371094 114.582031 Z M 277.636719 66.015625 L 287.207031 66.015625 L 287.207031 75.597656 L 277.636719 75.597656 Z M 277.636719 75.761719 L 287.207031 75.761719 L 287.207031 85.34375 L 277.636719 85.34375 Z M 277.636719 85.507812 L 287.207031 85.507812 L 287.207031 95.089844 L 277.636719 95.089844 Z M 277.636719 100.179688 L 277.636719 95.253906 L 287.207031 95.253906 L 287.207031 104.835938 L 277.636719 104.835938 Z M 277.636719 105 L 287.207031 105 L 287.207031 114.582031 L 277.636719 114.582031 Z M 267.898438 66.015625 L 277.472656 66.015625 L 277.472656 75.597656 L 267.898438 75.597656 Z M 267.898438 75.761719 L 277.472656 75.761719 L 277.472656 85.34375 L 267.898438 85.34375 Z M 267.898438 85.507812 L 277.472656 85.507812 L 277.472656 95.089844 L 267.898438 95.089844 Z M 267.898438 100.179688 L 267.898438 95.253906 L 277.472656 95.253906 L 277.472656 104.835938 L 267.898438 104.835938 Z M 267.898438 105 L 277.472656 105 L 277.472656 114.582031 L 267.898438 114.582031 Z M 258.164062 66.015625 L 267.738281 66.015625 L 267.738281 75.597656 L 258.164062 75.597656 Z M 258.164062 75.761719 L 267.738281 75.761719 L 267.738281 85.34375 L 258.164062 85.34375 Z M 258.164062 85.507812 L 267.738281 85.507812 L 267.738281 95.089844 L 258.164062 95.089844 Z M 258.164062 100.179688 L 258.164062 95.253906 L 267.738281 95.253906 L 267.738281 104.835938 L 258.164062 104.835938 Z M 258.164062 105 L 267.738281 105 L 267.738281 114.582031 L 258.164062 114.582031 Z M 258.164062 114.746094 L 267.738281 114.746094 L 267.738281 124.328125 L 258.164062 124.328125 Z M 248.425781 66.015625 L 258 66.015625 L 258 75.597656 L 248.425781 75.597656 Z M 248.425781 75.761719 L 258 75.761719 L 258 85.34375 L 248.425781 85.34375 Z M 248.425781 85.507812 L 258 85.507812 L 258 95.089844 L 248.425781 95.089844 Z M 248.425781 100.179688 L 248.425781 95.253906 L 258 95.253906 L 258 104.835938 L 248.425781 104.835938 Z M 248.425781 105 L 258 105 L 258 114.582031 L 248.425781 114.582031 Z M 248.425781 114.746094 L 258 114.746094 L 258 124.328125 L 248.425781 124.328125 Z M 248.425781 124.492188 L 258 124.492188 L 258 134.074219 L 248.425781 134.074219 Z M 238.691406 66.015625 L 248.265625 66.015625 L 248.265625 75.597656 L 238.691406 75.597656 Z M 238.691406 75.761719 L 248.265625 75.761719 L 248.265625 85.34375 L 238.691406 85.34375 Z M 238.691406 85.507812 L 248.265625 85.507812 L 248.265625 95.089844 L 238.691406 95.089844 Z M 238.691406 100.179688 L 238.691406 95.253906 L 248.265625 95.253906 L 248.265625 104.835938 L 238.691406 104.835938 Z M 238.691406 105 L 248.265625 105 L 248.265625 114.582031 L 238.691406 114.582031 Z M 238.691406 114.746094 L 248.265625 114.746094 L 248.265625 124.328125 L 238.691406 124.328125 Z M 238.691406 124.492188 L 248.265625 124.492188 L 248.265625 134.074219 L 238.691406 134.074219 Z M 238.691406 139.164062 L 238.691406 134.238281 L 248.265625 134.238281 L 248.265625 143.820312 L 238.691406 143.820312 Z M 228.953125 66.015625 L 238.527344 66.015625 L 238.527344 75.597656 L 228.953125 75.597656 Z M 228.953125 75.761719 L 238.527344 75.761719 L 238.527344 85.34375 L 228.953125 85.34375 Z M 228.953125 85.507812 L 238.527344 85.507812 L 238.527344 95.089844 L 228.953125 95.089844 Z M 228.953125 100.179688 L 228.953125 95.253906 L 238.527344 95.253906 L 238.527344 104.835938 L 228.953125 104.835938 Z M 228.953125 105 L 238.527344 105 L 238.527344 114.582031 L 228.953125 114.582031 Z M 228.953125 114.746094 L 238.527344 114.746094 L 238.527344 124.328125 L 228.953125 124.328125 Z M 228.953125 124.492188 L 238.527344 124.492188 L 238.527344 134.074219 L 228.953125 134.074219 Z M 228.953125 139.164062 L 228.953125 134.238281 L 238.527344 134.238281 L 238.527344 143.820312 L 228.953125 143.820312 Z M 228.953125 143.984375 L 238.527344 143.984375 L 238.527344 153.566406 L 228.953125 153.566406 Z M 82.753906 114.582031 L 73.179688 114.582031 L 73.179688 105 L 82.753906 105 Z M 82.753906 99.910156 L 82.753906 104.835938 L 73.179688 104.835938 L 73.179688 95.253906 L 82.753906 95.253906 Z M 82.753906 95.089844 L 73.179688 95.089844 L 73.179688 85.507812 L 82.753906 85.507812 Z M 82.753906 85.34375 L 73.179688 85.34375 L 73.179688 75.761719 L 82.753906 75.761719 Z M 82.753906 75.597656 L 73.179688 75.597656 L 73.179688 66.015625 L 82.753906 66.015625 Z M 92.488281 114.582031 L 82.914062 114.582031 L 82.914062 105 L 92.488281 105 Z M 92.488281 99.910156 L 92.488281 104.835938 L 82.914062 104.835938 L 82.914062 95.253906 L 92.488281 95.253906 Z M 92.488281 95.089844 L 82.914062 95.089844 L 82.914062 85.507812 L 92.488281 85.507812 Z M 92.488281 85.34375 L 82.914062 85.34375 L 82.914062 75.761719 L 92.488281 75.761719 Z M 92.488281 75.597656 L 82.914062 75.597656 L 82.914062 66.015625 L 92.488281 66.015625 Z M 82.753906 294.835938 L 82.753906 299.761719 L 73.179688 299.761719 L 73.179688 290.179688 L 82.753906 290.179688 Z M 82.753906 290.015625 L 73.179688 290.015625 L 73.179688 280.433594 L 82.753906 280.433594 Z M 82.753906 280.269531 L 73.179688 280.269531 L 73.179688 270.6875 L 82.753906 270.6875 Z M 82.753906 270.523438 L 73.179688 270.523438 L 73.179688 260.941406 L 82.753906 260.941406 Z M 82.753906 255.851562 L 82.753906 260.777344 L 73.179688 260.777344 L 73.179688 251.195312 L 82.753906 251.195312 Z M 92.488281 294.835938 L 92.488281 299.761719 L 82.914062 299.761719 L 82.914062 290.179688 L 92.488281 290.179688 Z M 92.488281 290.015625 L 82.914062 290.015625 L 82.914062 280.433594 L 92.488281 280.433594 Z M 92.488281 280.269531 L 82.914062 280.269531 L 82.914062 270.6875 L 92.488281 270.6875 Z M 92.488281 270.523438 L 82.914062 270.523438 L 82.914062 260.941406 L 92.488281 260.941406 Z M 92.488281 255.851562 L 92.488281 260.777344 L 82.914062 260.777344 L 82.914062 251.195312 L 92.488281 251.195312 Z M 102.222656 294.835938 L 102.222656 299.761719 L 92.652344 299.761719 L 92.652344 290.179688 L 102.222656 290.179688 Z M 102.222656 290.015625 L 92.652344 290.015625 L 92.652344 280.433594 L 102.222656 280.433594 Z M 102.222656 280.269531 L 92.652344 280.269531 L 92.652344 270.6875 L 102.222656 270.6875 Z M 102.222656 270.523438 L 92.652344 270.523438 L 92.652344 260.941406 L 102.222656 260.941406 Z M 102.222656 255.851562 L 102.222656 260.777344 L 92.652344 260.777344 L 92.652344 251.195312 L 102.222656 251.195312 Z M 102.222656 114.582031 L 92.652344 114.582031 L 92.652344 105 L 102.222656 105 Z M 102.222656 99.910156 L 102.222656 104.835938 L 92.652344 104.835938 L 92.652344 95.253906 L 102.222656 95.253906 Z M 102.222656 95.089844 L 92.652344 95.089844 L 92.652344 85.507812 L 102.222656 85.507812 Z M 102.222656 85.34375 L 92.652344 85.34375 L 92.652344 75.761719 L 102.222656 75.761719 Z M 102.222656 75.597656 L 92.652344 75.597656 L 92.652344 66.015625 L 102.222656 66.015625 Z M 111.960938 294.835938 L 111.960938 299.761719 L 102.386719 299.761719 L 102.386719 290.179688 L 111.960938 290.179688 Z M 111.960938 290.015625 L 102.386719 290.015625 L 102.386719 280.433594 L 111.960938 280.433594 Z M 111.960938 280.269531 L 102.386719 280.269531 L 102.386719 270.6875 L 111.960938 270.6875 Z M 111.960938 270.523438 L 102.386719 270.523438 L 102.386719 260.941406 L 111.960938 260.941406 Z M 111.960938 255.851562 L 111.960938 260.777344 L 102.386719 260.777344 L 102.386719 251.195312 L 111.960938 251.195312 Z M 111.960938 251.03125 L 102.386719 251.03125 L 102.386719 241.449219 L 111.960938 241.449219 Z M 111.960938 241.285156 L 102.386719 241.285156 L 102.386719 231.703125 L 111.960938 231.703125 Z M 111.960938 231.539062 L 102.386719 231.539062 L 102.386719 221.953125 L 111.960938 221.953125 Z M 111.960938 216.863281 L 111.960938 221.792969 L 102.386719 221.792969 L 102.386719 212.207031 L 111.960938 212.207031 Z M 111.960938 212.046875 L 102.386719 212.046875 L 102.386719 202.460938 L 111.960938 202.460938 Z M 111.960938 202.300781 L 102.386719 202.300781 L 102.386719 192.714844 L 111.960938 192.714844 Z M 111.960938 192.554688 L 102.386719 192.554688 L 102.386719 182.96875 L 111.960938 182.96875 Z M 111.960938 177.878906 L 111.960938 182.808594 L 102.386719 182.808594 L 102.386719 173.222656 L 111.960938 173.222656 Z M 111.960938 173.0625 L 102.386719 173.0625 L 102.386719 163.476562 L 111.960938 163.476562 Z M 111.960938 163.316406 L 102.386719 163.316406 L 102.386719 153.730469 L 111.960938 153.730469 Z M 111.960938 153.566406 L 102.386719 153.566406 L 102.386719 143.984375 L 111.960938 143.984375 Z M 111.960938 138.894531 L 111.960938 143.820312 L 102.386719 143.820312 L 102.386719 134.238281 L 111.960938 134.238281 Z M 111.960938 134.074219 L 102.386719 134.074219 L 102.386719 124.492188 L 111.960938 124.492188 Z M 111.960938 124.328125 L 102.386719 124.328125 L 102.386719 114.746094 L 111.960938 114.746094 Z M 111.960938 114.582031 L 102.386719 114.582031 L 102.386719 105 L 111.960938 105 Z M 111.960938 99.910156 L 111.960938 104.835938 L 102.386719 104.835938 L 102.386719 95.253906 L 111.960938 95.253906 Z M 111.960938 95.089844 L 102.386719 95.089844 L 102.386719 85.507812 L 111.960938 85.507812 Z M 111.960938 85.34375 L 102.386719 85.34375 L 102.386719 75.761719 L 111.960938 75.761719 Z M 111.960938 75.597656 L 102.386719 75.597656 L 102.386719 66.015625 L 111.960938 66.015625 Z M 121.695312 294.835938 L 121.695312 299.761719 L 112.121094 299.761719 L 112.121094 290.179688 L 121.695312 290.179688 Z M 121.695312 290.015625 L 112.121094 290.015625 L 112.121094 280.433594 L 121.695312 280.433594 Z M 121.695312 280.269531 L 112.121094 280.269531 L 112.121094 270.6875 L 121.695312 270.6875 Z M 121.695312 270.523438 L 112.121094 270.523438 L 112.121094 260.941406 L 121.695312 260.941406 Z M 121.695312 255.851562 L 121.695312 260.777344 L 112.121094 260.777344 L 112.121094 251.195312 L 121.695312 251.195312 Z M 121.695312 251.03125 L 112.121094 251.03125 L 112.121094 241.449219 L 121.695312 241.449219 Z M 121.695312 241.285156 L 112.121094 241.285156 L 112.121094 231.703125 L 121.695312 231.703125 Z M 121.695312 231.539062 L 112.121094 231.539062 L 112.121094 221.953125 L 121.695312 221.953125 Z M 121.695312 216.863281 L 121.695312 221.792969 L 112.121094 221.792969 L 112.121094 212.207031 L 121.695312 212.207031 Z M 121.695312 212.046875 L 112.121094 212.046875 L 112.121094 202.460938 L 121.695312 202.460938 Z M 121.695312 202.300781 L 112.121094 202.300781 L 112.121094 192.714844 L 121.695312 192.714844 Z M 121.695312 192.554688 L 112.121094 192.554688 L 112.121094 182.96875 L 121.695312 182.96875 Z M 121.695312 177.878906 L 121.695312 182.808594 L 112.121094 182.808594 L 112.121094 173.222656 L 121.695312 173.222656 Z M 121.695312 173.0625 L 112.121094 173.0625 L 112.121094 163.476562 L 121.695312 163.476562 Z M 121.695312 163.316406 L 112.121094 163.316406 L 112.121094 153.730469 L 121.695312 153.730469 Z M 121.695312 153.566406 L 112.121094 153.566406 L 112.121094 143.984375 L 121.695312 143.984375 Z M 121.695312 138.894531 L 121.695312 143.820312 L 112.121094 143.820312 L 112.121094 134.238281 L 121.695312 134.238281 Z M 121.695312 134.074219 L 112.121094 134.074219 L 112.121094 124.492188 L 121.695312 124.492188 Z M 121.695312 124.328125 L 112.121094 124.328125 L 112.121094 114.746094 L 121.695312 114.746094 Z M 121.695312 114.582031 L 112.121094 114.582031 L 112.121094 105 L 121.695312 105 Z M 121.695312 99.910156 L 121.695312 104.835938 L 112.121094 104.835938 L 112.121094 95.253906 L 121.695312 95.253906 Z M 121.695312 95.089844 L 112.121094 95.089844 L 112.121094 85.507812 L 121.695312 85.507812 Z M 121.695312 85.34375 L 112.121094 85.34375 L 112.121094 75.761719 L 121.695312 75.761719 Z M 121.695312 75.597656 L 112.121094 75.597656 L 112.121094 66.015625 L 121.695312 66.015625 Z M 131.433594 294.835938 L 131.433594 299.761719 L 121.859375 299.761719 L 121.859375 290.179688 L 131.433594 290.179688 Z M 131.433594 290.015625 L 121.859375 290.015625 L 121.859375 280.433594 L 131.433594 280.433594 Z M 131.433594 280.269531 L 121.859375 280.269531 L 121.859375 270.6875 L 131.433594 270.6875 Z M 131.433594 270.523438 L 121.859375 270.523438 L 121.859375 260.941406 L 131.433594 260.941406 Z M 131.433594 255.851562 L 131.433594 260.777344 L 121.859375 260.777344 L 121.859375 251.195312 L 131.433594 251.195312 Z M 131.433594 251.03125 L 121.859375 251.03125 L 121.859375 241.449219 L 131.433594 241.449219 Z M 131.433594 241.285156 L 121.859375 241.285156 L 121.859375 231.703125 L 131.433594 231.703125 Z M 131.433594 231.539062 L 121.859375 231.539062 L 121.859375 221.953125 L 131.433594 221.953125 Z M 131.433594 216.863281 L 131.433594 221.792969 L 121.859375 221.792969 L 121.859375 212.207031 L 131.433594 212.207031 Z M 131.433594 212.046875 L 121.859375 212.046875 L 121.859375 202.460938 L 131.433594 202.460938 Z M 131.433594 202.300781 L 121.859375 202.300781 L 121.859375 192.714844 L 131.433594 192.714844 Z M 131.433594 192.554688 L 121.859375 192.554688 L 121.859375 182.96875 L 131.433594 182.96875 Z M 131.433594 177.878906 L 131.433594 182.808594 L 121.859375 182.808594 L 121.859375 173.222656 L 131.433594 173.222656 Z M 131.433594 173.0625 L 121.859375 173.0625 L 121.859375 163.476562 L 131.433594 163.476562 Z M 131.433594 163.316406 L 121.859375 163.316406 L 121.859375 153.730469 L 131.433594 153.730469 Z M 131.433594 153.566406 L 121.859375 153.566406 L 121.859375 143.984375 L 131.433594 143.984375 Z M 131.433594 138.894531 L 131.433594 143.820312 L 121.859375 143.820312 L 121.859375 134.238281 L 131.433594 134.238281 Z M 131.433594 134.074219 L 121.859375 134.074219 L 121.859375 124.492188 L 131.433594 124.492188 Z M 131.433594 124.328125 L 121.859375 124.328125 L 121.859375 114.746094 L 131.433594 114.746094 Z M 131.433594 114.582031 L 121.859375 114.582031 L 121.859375 105 L 131.433594 105 Z M 131.433594 99.910156 L 131.433594 104.835938 L 121.859375 104.835938 L 121.859375 95.253906 L 131.433594 95.253906 Z M 131.433594 95.089844 L 121.859375 95.089844 L 121.859375 85.507812 L 131.433594 85.507812 Z M 131.433594 85.34375 L 121.859375 85.34375 L 121.859375 75.761719 L 131.433594 75.761719 Z M 131.433594 75.597656 L 121.859375 75.597656 L 121.859375 66.015625 L 131.433594 66.015625 Z M 141.167969 294.835938 L 141.167969 299.761719 L 131.59375 299.761719 L 131.59375 290.179688 L 141.167969 290.179688 Z M 141.167969 290.015625 L 131.59375 290.015625 L 131.59375 280.433594 L 141.167969 280.433594 Z M 141.167969 280.269531 L 131.59375 280.269531 L 131.59375 270.6875 L 141.167969 270.6875 Z M 141.167969 270.523438 L 131.59375 270.523438 L 131.59375 260.941406 L 141.167969 260.941406 Z M 141.167969 255.851562 L 141.167969 260.777344 L 131.59375 260.777344 L 131.59375 251.195312 L 141.167969 251.195312 Z M 141.167969 251.03125 L 131.59375 251.03125 L 131.59375 241.449219 L 141.167969 241.449219 Z M 141.167969 241.285156 L 131.59375 241.285156 L 131.59375 231.703125 L 141.167969 231.703125 Z M 141.167969 231.539062 L 131.59375 231.539062 L 131.59375 221.953125 L 141.167969 221.953125 Z M 141.167969 216.863281 L 141.167969 221.792969 L 131.59375 221.792969 L 131.59375 212.207031 L 141.167969 212.207031 Z M 141.167969 212.046875 L 131.59375 212.046875 L 131.59375 202.460938 L 141.167969 202.460938 Z M 141.167969 202.300781 L 131.59375 202.300781 L 131.59375 192.714844 L 141.167969 192.714844 Z M 141.167969 192.554688 L 131.59375 192.554688 L 131.59375 182.96875 L 141.167969 182.96875 Z M 141.167969 177.878906 L 141.167969 182.808594 L 131.59375 182.808594 L 131.59375 173.222656 L 141.167969 173.222656 Z M 141.167969 173.0625 L 131.59375 173.0625 L 131.59375 163.476562 L 141.167969 163.476562 Z M 141.167969 163.316406 L 131.59375 163.316406 L 131.59375 153.730469 L 141.167969 153.730469 Z M 141.167969 153.566406 L 131.59375 153.566406 L 131.59375 143.984375 L 141.167969 143.984375 Z M 141.167969 138.894531 L 141.167969 143.820312 L 131.59375 143.820312 L 131.59375 134.238281 L 141.167969 134.238281 Z M 141.167969 134.074219 L 131.59375 134.074219 L 131.59375 124.492188 L 141.167969 124.492188 Z M 141.167969 124.328125 L 131.59375 124.328125 L 131.59375 114.746094 L 141.167969 114.746094 Z M 141.167969 114.582031 L 131.59375 114.582031 L 131.59375 105 L 141.167969 105 Z M 141.167969 99.910156 L 141.167969 104.835938 L 131.59375 104.835938 L 131.59375 95.253906 L 141.167969 95.253906 Z M 141.167969 95.089844 L 131.59375 95.089844 L 131.59375 85.507812 L 141.167969 85.507812 Z M 141.167969 85.34375 L 131.59375 85.34375 L 131.59375 75.761719 L 141.167969 75.761719 Z M 141.167969 75.597656 L 131.59375 75.597656 L 131.59375 66.015625 L 141.167969 66.015625 Z M 150.90625 294.835938 L 150.90625 299.761719 L 141.332031 299.761719 L 141.332031 290.179688 L 150.90625 290.179688 Z M 150.90625 290.015625 L 141.332031 290.015625 L 141.332031 280.433594 L 150.90625 280.433594 Z M 150.90625 280.269531 L 141.332031 280.269531 L 141.332031 270.6875 L 150.90625 270.6875 Z M 150.90625 270.523438 L 141.332031 270.523438 L 141.332031 260.941406 L 150.90625 260.941406 Z M 150.90625 255.851562 L 150.90625 260.777344 L 141.332031 260.777344 L 141.332031 251.195312 L 150.90625 251.195312 Z M 150.90625 251.03125 L 141.332031 251.03125 L 141.332031 241.449219 L 150.90625 241.449219 Z M 150.90625 241.285156 L 141.332031 241.285156 L 141.332031 231.703125 L 150.90625 231.703125 Z M 150.90625 231.539062 L 141.332031 231.539062 L 141.332031 221.953125 L 150.90625 221.953125 Z M 150.90625 216.863281 L 150.90625 221.792969 L 141.332031 221.792969 L 141.332031 212.207031 L 150.90625 212.207031 Z M 150.90625 212.046875 L 141.332031 212.046875 L 141.332031 202.460938 L 150.90625 202.460938 Z M 150.90625 202.300781 L 141.332031 202.300781 L 141.332031 192.714844 L 150.90625 192.714844 Z M 150.90625 192.554688 L 141.332031 192.554688 L 141.332031 182.96875 L 150.90625 182.96875 Z M 150.90625 177.878906 L 150.90625 182.808594 L 141.332031 182.808594 L 141.332031 173.222656 L 150.90625 173.222656 Z M 150.90625 173.0625 L 141.332031 173.0625 L 141.332031 163.476562 L 150.90625 163.476562 Z M 150.90625 163.316406 L 141.332031 163.316406 L 141.332031 153.730469 L 150.90625 153.730469 Z M 150.90625 153.566406 L 141.332031 153.566406 L 141.332031 143.984375 L 150.90625 143.984375 Z M 150.90625 138.894531 L 150.90625 143.820312 L 141.332031 143.820312 L 141.332031 134.238281 L 150.90625 134.238281 Z M 150.90625 134.074219 L 141.332031 134.074219 L 141.332031 124.492188 L 150.90625 124.492188 Z M 150.90625 124.328125 L 141.332031 124.328125 L 141.332031 114.746094 L 150.90625 114.746094 Z M 150.90625 114.582031 L 141.332031 114.582031 L 141.332031 105 L 150.90625 105 Z M 150.90625 99.910156 L 150.90625 104.835938 L 141.332031 104.835938 L 141.332031 95.253906 L 150.90625 95.253906 Z M 150.90625 95.089844 L 141.332031 95.089844 L 141.332031 85.507812 L 150.90625 85.507812 Z M 150.90625 85.34375 L 141.332031 85.34375 L 141.332031 75.761719 L 150.90625 75.761719 Z M 150.90625 75.597656 L 141.332031 75.597656 L 141.332031 66.015625 L 150.90625 66.015625 Z M 160.640625 294.835938 L 160.640625 299.761719 L 151.066406 299.761719 L 151.066406 290.179688 L 160.640625 290.179688 Z M 160.640625 290.015625 L 151.066406 290.015625 L 151.066406 280.433594 L 160.640625 280.433594 Z M 160.640625 280.269531 L 151.066406 280.269531 L 151.066406 270.6875 L 160.640625 270.6875 Z M 160.640625 270.523438 L 151.066406 270.523438 L 151.066406 260.941406 L 160.640625 260.941406 Z M 160.640625 255.851562 L 160.640625 260.777344 L 151.066406 260.777344 L 151.066406 251.195312 L 160.640625 251.195312 Z M 160.640625 251.03125 L 151.066406 251.03125 L 151.066406 241.449219 L 160.640625 241.449219 Z M 160.640625 241.285156 L 151.066406 241.285156 L 151.066406 231.703125 L 160.640625 231.703125 Z M 160.640625 231.539062 L 151.066406 231.539062 L 151.066406 221.953125 L 160.640625 221.953125 Z M 160.640625 216.863281 L 160.640625 221.792969 L 151.066406 221.792969 L 151.066406 212.207031 L 160.640625 212.207031 Z M 160.640625 212.046875 L 151.066406 212.046875 L 151.066406 202.460938 L 160.640625 202.460938 Z M 160.640625 202.300781 L 151.066406 202.300781 L 151.066406 192.714844 L 160.640625 192.714844 Z M 160.640625 192.554688 L 151.066406 192.554688 L 151.066406 182.96875 L 160.640625 182.96875 Z M 160.640625 177.878906 L 160.640625 182.808594 L 151.066406 182.808594 L 151.066406 173.222656 L 160.640625 173.222656 Z M 160.640625 173.0625 L 151.066406 173.0625 L 151.066406 163.476562 L 160.640625 163.476562 Z M 160.640625 163.316406 L 151.066406 163.316406 L 151.066406 153.730469 L 160.640625 153.730469 Z M 160.640625 153.566406 L 151.066406 153.566406 L 151.066406 143.984375 L 160.640625 143.984375 Z M 160.640625 138.894531 L 160.640625 143.820312 L 151.066406 143.820312 L 151.066406 134.238281 L 160.640625 134.238281 Z M 160.640625 134.074219 L 151.066406 134.074219 L 151.066406 124.492188 L 160.640625 124.492188 Z M 160.640625 124.328125 L 151.066406 124.328125 L 151.066406 114.746094 L 160.640625 114.746094 Z M 160.640625 114.582031 L 151.066406 114.582031 L 151.066406 105 L 160.640625 105 Z M 160.640625 99.910156 L 160.640625 104.835938 L 151.066406 104.835938 L 151.066406 95.253906 L 160.640625 95.253906 Z M 160.640625 95.089844 L 151.066406 95.089844 L 151.066406 85.507812 L 160.640625 85.507812 Z M 160.640625 85.34375 L 151.066406 85.34375 L 151.066406 75.761719 L 160.640625 75.761719 Z M 160.640625 75.597656 L 151.066406 75.597656 L 151.066406 66.015625 L 160.640625 66.015625 Z M 170.375 294.835938 L 170.375 299.761719 L 160.804688 299.761719 L 160.804688 290.179688 L 170.375 290.179688 Z M 170.375 290.015625 L 160.804688 290.015625 L 160.804688 280.433594 L 170.375 280.433594 Z M 170.375 280.269531 L 160.804688 280.269531 L 160.804688 270.6875 L 170.375 270.6875 Z M 170.375 270.523438 L 160.804688 270.523438 L 160.804688 260.941406 L 170.375 260.941406 Z M 170.375 255.851562 L 170.375 260.777344 L 160.804688 260.777344 L 160.804688 251.195312 L 170.375 251.195312 Z M 170.375 251.03125 L 160.804688 251.03125 L 160.804688 241.449219 L 170.375 241.449219 Z M 170.375 241.285156 L 160.804688 241.285156 L 160.804688 231.703125 L 170.375 231.703125 Z M 170.375 231.539062 L 160.804688 231.539062 L 160.804688 221.953125 L 170.375 221.953125 Z M 170.375 216.863281 L 170.375 221.792969 L 160.804688 221.792969 L 160.804688 212.207031 L 170.375 212.207031 Z M 170.375 212.046875 L 160.804688 212.046875 L 160.804688 202.460938 L 170.375 202.460938 Z M 170.375 202.300781 L 160.804688 202.300781 L 160.804688 192.714844 L 170.375 192.714844 Z M 170.375 192.554688 L 160.804688 192.554688 L 160.804688 182.96875 L 170.375 182.96875 Z M 170.375 177.878906 L 170.375 182.808594 L 160.804688 182.808594 L 160.804688 173.222656 L 170.375 173.222656 Z M 170.375 173.0625 L 160.804688 173.0625 L 160.804688 163.476562 L 170.375 163.476562 Z M 170.375 163.316406 L 160.804688 163.316406 L 160.804688 153.730469 L 170.375 153.730469 Z M 170.375 153.566406 L 160.804688 153.566406 L 160.804688 143.984375 L 170.375 143.984375 Z M 170.375 138.894531 L 170.375 143.820312 L 160.804688 143.820312 L 160.804688 134.238281 L 170.375 134.238281 Z M 170.375 134.074219 L 160.804688 134.074219 L 160.804688 124.492188 L 170.375 124.492188 Z M 170.375 124.328125 L 160.804688 124.328125 L 160.804688 114.746094 L 170.375 114.746094 Z M 170.375 114.582031 L 160.804688 114.582031 L 160.804688 105 L 170.375 105 Z M 170.375 99.910156 L 170.375 104.835938 L 160.804688 104.835938 L 160.804688 95.253906 L 170.375 95.253906 Z M 170.375 95.089844 L 160.804688 95.089844 L 160.804688 85.507812 L 170.375 85.507812 Z M 170.375 85.34375 L 160.804688 85.34375 L 160.804688 75.761719 L 170.375 75.761719 Z M 170.375 75.597656 L 160.804688 75.597656 L 160.804688 66.015625 L 170.375 66.015625 Z M 180.113281 294.835938 L 180.113281 299.761719 L 170.539062 299.761719 L 170.539062 290.179688 L 180.113281 290.179688 Z M 180.113281 290.015625 L 170.539062 290.015625 L 170.539062 280.433594 L 180.113281 280.433594 Z M 180.113281 280.269531 L 170.539062 280.269531 L 170.539062 270.6875 L 180.113281 270.6875 Z M 180.113281 270.523438 L 170.539062 270.523438 L 170.539062 260.941406 L 180.113281 260.941406 Z M 180.113281 255.851562 L 180.113281 260.777344 L 170.539062 260.777344 L 170.539062 251.195312 L 180.113281 251.195312 Z M 180.113281 251.03125 L 170.539062 251.03125 L 170.539062 241.449219 L 180.113281 241.449219 Z M 180.113281 241.285156 L 170.539062 241.285156 L 170.539062 231.703125 L 180.113281 231.703125 Z M 180.113281 231.539062 L 170.539062 231.539062 L 170.539062 221.953125 L 180.113281 221.953125 Z M 180.113281 216.863281 L 180.113281 221.792969 L 170.539062 221.792969 L 170.539062 212.207031 L 180.113281 212.207031 Z M 180.113281 212.046875 L 170.539062 212.046875 L 170.539062 202.460938 L 180.113281 202.460938 Z M 180.113281 202.300781 L 170.539062 202.300781 L 170.539062 192.714844 L 180.113281 192.714844 Z M 180.113281 192.554688 L 170.539062 192.554688 L 170.539062 182.96875 L 180.113281 182.96875 Z M 180.113281 177.878906 L 180.113281 182.808594 L 170.539062 182.808594 L 170.539062 173.222656 L 180.113281 173.222656 Z M 180.113281 173.0625 L 170.539062 173.0625 L 170.539062 163.476562 L 180.113281 163.476562 Z M 180.113281 163.316406 L 170.539062 163.316406 L 170.539062 153.730469 L 180.113281 153.730469 Z M 180.113281 153.566406 L 170.539062 153.566406 L 170.539062 143.984375 L 180.113281 143.984375 Z M 180.113281 138.894531 L 180.113281 143.820312 L 170.539062 143.820312 L 170.539062 134.238281 L 180.113281 134.238281 Z M 180.113281 134.074219 L 170.539062 134.074219 L 170.539062 124.492188 L 180.113281 124.492188 Z M 180.113281 124.328125 L 170.539062 124.328125 L 170.539062 114.746094 L 180.113281 114.746094 Z M 180.113281 114.582031 L 170.539062 114.582031 L 170.539062 105 L 180.113281 105 Z M 180.113281 99.910156 L 180.113281 104.835938 L 170.539062 104.835938 L 170.539062 95.253906 L 180.113281 95.253906 Z M 180.113281 95.089844 L 170.539062 95.089844 L 170.539062 85.507812 L 180.113281 85.507812 Z M 180.113281 85.34375 L 170.539062 85.34375 L 170.539062 75.761719 L 180.113281 75.761719 Z M 180.113281 75.597656 L 170.539062 75.597656 L 170.539062 66.015625 L 180.113281 66.015625 Z M 189.847656 294.835938 L 189.847656 299.761719 L 180.273438 299.761719 L 180.273438 290.179688 L 189.847656 290.179688 Z M 189.847656 290.015625 L 180.273438 290.015625 L 180.273438 280.433594 L 189.847656 280.433594 Z M 189.847656 280.269531 L 180.273438 280.269531 L 180.273438 270.6875 L 189.847656 270.6875 Z M 189.847656 270.523438 L 180.273438 270.523438 L 180.273438 260.941406 L 189.847656 260.941406 Z M 189.847656 255.851562 L 189.847656 260.777344 L 180.273438 260.777344 L 180.273438 251.195312 L 189.847656 251.195312 Z M 189.847656 251.03125 L 180.273438 251.03125 L 180.273438 241.449219 L 189.847656 241.449219 Z M 189.847656 241.285156 L 180.273438 241.285156 L 180.273438 231.703125 L 189.847656 231.703125 Z M 189.847656 231.539062 L 180.273438 231.539062 L 180.273438 221.953125 L 189.847656 221.953125 Z M 189.847656 216.863281 L 189.847656 221.792969 L 180.273438 221.792969 L 180.273438 212.207031 L 189.847656 212.207031 Z M 189.847656 212.046875 L 180.273438 212.046875 L 180.273438 202.460938 L 189.847656 202.460938 Z M 189.847656 202.300781 L 180.273438 202.300781 L 180.273438 192.714844 L 189.847656 192.714844 Z M 189.847656 192.554688 L 180.273438 192.554688 L 180.273438 182.96875 L 189.847656 182.96875 Z M 189.847656 177.878906 L 189.847656 182.808594 L 180.273438 182.808594 L 180.273438 173.222656 L 189.847656 173.222656 Z M 189.847656 173.0625 L 180.273438 173.0625 L 180.273438 163.476562 L 189.847656 163.476562 Z M 189.847656 163.316406 L 180.273438 163.316406 L 180.273438 153.730469 L 189.847656 153.730469 Z M 189.847656 153.566406 L 180.273438 153.566406 L 180.273438 143.984375 L 189.847656 143.984375 Z M 189.847656 138.894531 L 189.847656 143.820312 L 180.273438 143.820312 L 180.273438 134.238281 L 189.847656 134.238281 Z M 189.847656 124.328125 L 186.929688 124.328125 L 186.820312 124.492188 L 189.847656 124.492188 L 189.847656 134.074219 L 180.273438 134.074219 L 180.273438 124.492188 L 184.441406 124.492188 L 184.441406 124.328125 L 180.273438 124.328125 L 180.273438 114.746094 L 189.847656 114.746094 Z M 189.847656 114.582031 L 180.273438 114.582031 L 180.273438 105 L 189.847656 105 Z M 189.847656 99.910156 L 189.847656 104.835938 L 180.273438 104.835938 L 180.273438 95.253906 L 189.847656 95.253906 Z M 189.847656 95.089844 L 180.273438 95.089844 L 180.273438 85.507812 L 189.847656 85.507812 Z M 189.847656 85.34375 L 180.273438 85.34375 L 180.273438 75.761719 L 189.847656 75.761719 Z M 189.847656 75.597656 L 180.273438 75.597656 L 180.273438 66.015625 L 189.847656 66.015625 Z M 199.585938 294.835938 L 199.585938 299.761719 L 190.011719 299.761719 L 190.011719 290.179688 L 199.585938 290.179688 Z M 199.585938 290.015625 L 190.011719 290.015625 L 190.011719 280.433594 L 199.585938 280.433594 Z M 199.585938 280.269531 L 190.011719 280.269531 L 190.011719 270.6875 L 199.585938 270.6875 Z M 199.585938 270.523438 L 190.011719 270.523438 L 190.011719 260.941406 L 199.585938 260.941406 Z M 199.585938 255.851562 L 199.585938 260.777344 L 190.011719 260.777344 L 190.011719 251.195312 L 199.585938 251.195312 Z M 199.585938 251.03125 L 190.011719 251.03125 L 190.011719 241.449219 L 199.585938 241.449219 Z M 199.585938 241.285156 L 190.011719 241.285156 L 190.011719 231.703125 L 199.585938 231.703125 Z M 199.585938 231.539062 L 190.011719 231.539062 L 190.011719 221.953125 L 199.585938 221.953125 Z M 199.585938 216.863281 L 199.585938 221.792969 L 190.011719 221.792969 L 190.011719 212.207031 L 199.585938 212.207031 Z M 199.585938 212.046875 L 190.011719 212.046875 L 190.011719 202.460938 L 199.585938 202.460938 Z M 199.585938 202.300781 L 190.011719 202.300781 L 190.011719 192.714844 L 199.585938 192.714844 Z M 199.585938 192.554688 L 190.011719 192.554688 L 190.011719 182.96875 L 199.585938 182.96875 Z M 199.585938 177.878906 L 199.585938 182.808594 L 190.011719 182.808594 L 190.011719 173.222656 L 199.585938 173.222656 Z M 199.585938 173.0625 L 190.011719 173.0625 L 190.011719 163.476562 L 199.585938 163.476562 Z M 199.585938 163.316406 L 190.011719 163.316406 L 190.011719 153.730469 L 199.585938 153.730469 Z M 199.585938 153.566406 L 190.011719 153.566406 L 190.011719 143.984375 L 199.585938 143.984375 Z M 199.585938 138.894531 L 199.585938 143.820312 L 190.011719 143.820312 L 190.011719 134.238281 L 199.585938 134.238281 Z M 199.585938 134.074219 L 190.011719 134.074219 L 190.011719 124.492188 L 199.585938 124.492188 Z M 199.585938 124.328125 L 190.011719 124.328125 L 190.011719 114.746094 L 199.585938 114.746094 Z M 199.585938 114.582031 L 190.011719 114.582031 L 190.011719 105 L 199.585938 105 Z M 199.585938 99.910156 L 199.585938 104.835938 L 190.011719 104.835938 L 190.011719 95.253906 L 199.585938 95.253906 Z M 199.585938 95.089844 L 190.011719 95.089844 L 190.011719 85.507812 L 199.585938 85.507812 Z M 199.585938 85.34375 L 190.011719 85.34375 L 190.011719 75.761719 L 199.585938 75.761719 Z M 199.585938 75.597656 L 190.011719 75.597656 L 190.011719 66.015625 L 199.585938 66.015625 Z M 209.320312 294.835938 L 209.320312 299.761719 L 199.746094 299.761719 L 199.746094 290.179688 L 209.320312 290.179688 Z M 209.320312 290.015625 L 199.746094 290.015625 L 199.746094 280.433594 L 209.320312 280.433594 Z M 209.320312 280.269531 L 199.746094 280.269531 L 199.746094 270.6875 L 209.320312 270.6875 Z M 209.320312 270.523438 L 199.746094 270.523438 L 199.746094 260.941406 L 209.320312 260.941406 Z M 209.320312 255.851562 L 209.320312 260.777344 L 199.746094 260.777344 L 199.746094 251.195312 L 209.320312 251.195312 Z M 209.320312 251.03125 L 199.746094 251.03125 L 199.746094 241.449219 L 209.320312 241.449219 Z M 209.320312 241.285156 L 199.746094 241.285156 L 199.746094 231.703125 L 209.320312 231.703125 Z M 209.320312 231.539062 L 199.746094 231.539062 L 199.746094 221.953125 L 209.320312 221.953125 Z M 209.320312 216.863281 L 209.320312 221.792969 L 199.746094 221.792969 L 199.746094 212.207031 L 209.320312 212.207031 Z M 209.320312 212.046875 L 199.746094 212.046875 L 199.746094 202.460938 L 209.320312 202.460938 Z M 209.320312 202.300781 L 199.746094 202.300781 L 199.746094 192.714844 L 209.320312 192.714844 Z M 209.320312 192.554688 L 199.746094 192.554688 L 199.746094 182.96875 L 209.320312 182.96875 Z M 209.320312 177.878906 L 209.320312 182.808594 L 199.746094 182.808594 L 199.746094 173.222656 L 209.320312 173.222656 Z M 209.320312 173.0625 L 199.746094 173.0625 L 199.746094 163.476562 L 209.320312 163.476562 Z M 209.320312 163.316406 L 199.746094 163.316406 L 199.746094 153.730469 L 209.320312 153.730469 Z M 209.320312 153.566406 L 199.746094 153.566406 L 199.746094 143.984375 L 209.320312 143.984375 Z M 209.320312 138.894531 L 209.320312 143.820312 L 199.746094 143.820312 L 199.746094 134.238281 L 209.320312 134.238281 Z M 209.320312 134.074219 L 199.746094 134.074219 L 199.746094 124.492188 L 209.320312 124.492188 Z M 209.320312 124.328125 L 199.746094 124.328125 L 199.746094 114.746094 L 209.320312 114.746094 Z M 209.320312 114.582031 L 199.746094 114.582031 L 199.746094 105 L 209.320312 105 Z M 209.320312 99.910156 L 209.320312 104.835938 L 199.746094 104.835938 L 199.746094 95.253906 L 209.320312 95.253906 Z M 209.320312 95.089844 L 199.746094 95.089844 L 199.746094 85.507812 L 209.320312 85.507812 Z M 209.320312 85.34375 L 199.746094 85.34375 L 199.746094 75.761719 L 209.320312 75.761719 Z M 209.320312 75.597656 L 199.746094 75.597656 L 199.746094 66.015625 L 209.320312 66.015625 Z M 219.058594 280.269531 L 209.484375 280.269531 L 209.484375 270.6875 L 219.058594 270.6875 Z M 219.058594 270.523438 L 209.484375 270.523438 L 209.484375 260.941406 L 219.058594 260.941406 Z M 219.058594 255.851562 L 219.058594 260.777344 L 209.484375 260.777344 L 209.484375 251.195312 L 219.058594 251.195312 Z M 219.058594 251.03125 L 209.484375 251.03125 L 209.484375 241.449219 L 219.058594 241.449219 Z M 219.058594 241.285156 L 209.484375 241.285156 L 209.484375 231.703125 L 219.058594 231.703125 Z M 219.058594 231.539062 L 209.484375 231.539062 L 209.484375 221.953125 L 219.058594 221.953125 Z M 219.058594 216.863281 L 219.058594 221.792969 L 209.484375 221.792969 L 209.484375 212.207031 L 219.058594 212.207031 Z M 219.058594 212.046875 L 209.484375 212.046875 L 209.484375 202.460938 L 219.058594 202.460938 Z M 219.058594 202.300781 L 209.484375 202.300781 L 209.484375 192.714844 L 219.058594 192.714844 Z M 219.058594 192.554688 L 209.484375 192.554688 L 209.484375 182.96875 L 219.058594 182.96875 Z M 219.058594 177.878906 L 219.058594 182.808594 L 209.484375 182.808594 L 209.484375 173.222656 L 219.058594 173.222656 Z M 219.058594 173.0625 L 209.484375 173.0625 L 209.484375 163.476562 L 219.058594 163.476562 Z M 219.058594 163.316406 L 209.484375 163.316406 L 209.484375 153.730469 L 219.058594 153.730469 Z M 219.058594 153.566406 L 209.484375 153.566406 L 209.484375 143.984375 L 219.058594 143.984375 Z M 219.058594 138.894531 L 219.058594 143.820312 L 209.484375 143.820312 L 209.484375 134.238281 L 219.058594 134.238281 Z M 219.058594 134.074219 L 209.484375 134.074219 L 209.484375 124.492188 L 219.058594 124.492188 Z M 219.058594 124.328125 L 209.484375 124.328125 L 209.484375 114.746094 L 219.058594 114.746094 Z M 219.058594 114.582031 L 209.484375 114.582031 L 209.484375 105 L 219.058594 105 Z M 219.058594 99.910156 L 219.058594 104.835938 L 209.484375 104.835938 L 209.484375 95.253906 L 219.058594 95.253906 Z M 219.058594 95.089844 L 209.484375 95.089844 L 209.484375 85.507812 L 219.058594 85.507812 Z M 219.058594 85.34375 L 209.484375 85.34375 L 209.484375 75.761719 L 219.058594 75.761719 Z M 219.058594 75.597656 L 209.484375 75.597656 L 209.484375 66.015625 L 219.058594 66.015625 Z M 228.792969 290.015625 L 219.21875 290.015625 L 219.21875 280.433594 L 228.792969 280.433594 Z M 228.792969 280.269531 L 219.21875 280.269531 L 219.21875 270.6875 L 228.792969 270.6875 Z M 228.792969 270.523438 L 219.21875 270.523438 L 219.21875 260.941406 L 228.792969 260.941406 Z M 228.792969 255.851562 L 228.792969 260.777344 L 219.21875 260.777344 L 219.21875 251.195312 L 228.792969 251.195312 Z M 228.792969 251.03125 L 219.21875 251.03125 L 219.21875 241.449219 L 228.792969 241.449219 Z M 228.792969 241.285156 L 219.21875 241.285156 L 219.21875 231.703125 L 228.792969 231.703125 Z M 228.792969 231.539062 L 219.21875 231.539062 L 219.21875 221.953125 L 228.792969 221.953125 Z M 228.792969 216.863281 L 228.792969 221.792969 L 219.21875 221.792969 L 219.21875 212.207031 L 228.792969 212.207031 Z M 228.792969 212.046875 L 219.21875 212.046875 L 219.21875 202.460938 L 228.792969 202.460938 Z M 228.792969 202.300781 L 219.21875 202.300781 L 219.21875 192.714844 L 228.792969 192.714844 Z M 228.792969 192.554688 L 219.21875 192.554688 L 219.21875 182.96875 L 228.792969 182.96875 Z M 228.792969 177.878906 L 228.792969 182.808594 L 219.21875 182.808594 L 219.21875 173.222656 L 228.792969 173.222656 Z M 228.792969 173.0625 L 219.21875 173.0625 L 219.21875 163.476562 L 228.792969 163.476562 Z M 228.792969 163.316406 L 219.21875 163.316406 L 219.21875 153.730469 L 228.792969 153.730469 Z M 228.792969 153.566406 L 219.21875 153.566406 L 219.21875 143.984375 L 228.792969 143.984375 Z M 228.792969 138.894531 L 228.792969 143.820312 L 219.21875 143.820312 L 219.21875 134.238281 L 228.792969 134.238281 Z M 228.792969 134.074219 L 219.21875 134.074219 L 219.21875 124.492188 L 228.792969 124.492188 Z M 228.792969 124.328125 L 219.21875 124.328125 L 219.21875 114.746094 L 228.792969 114.746094 Z M 228.792969 114.582031 L 219.21875 114.582031 L 219.21875 105 L 228.792969 105 Z M 228.792969 99.910156 L 228.792969 104.835938 L 219.21875 104.835938 L 219.21875 95.253906 L 228.792969 95.253906 Z M 228.792969 95.089844 L 219.21875 95.089844 L 219.21875 85.507812 L 228.792969 85.507812 Z M 228.792969 85.34375 L 219.21875 85.34375 L 219.21875 75.761719 L 228.792969 75.761719 Z M 228.792969 75.597656 L 219.21875 75.597656 L 219.21875 66.015625 L 228.792969 66.015625 Z M 238.527344 290.015625 L 228.953125 290.015625 L 228.953125 280.433594 L 238.527344 280.433594 Z M 238.527344 280.269531 L 228.953125 280.269531 L 228.953125 270.6875 L 238.527344 270.6875 Z M 238.527344 270.523438 L 228.953125 270.523438 L 228.953125 260.941406 L 238.527344 260.941406 Z M 238.527344 255.851562 L 238.527344 260.777344 L 228.953125 260.777344 L 228.953125 251.195312 L 238.527344 251.195312 Z M 238.527344 251.03125 L 228.953125 251.03125 L 228.953125 241.449219 L 238.527344 241.449219 Z M 238.527344 241.285156 L 228.953125 241.285156 L 228.953125 231.703125 L 238.527344 231.703125 Z M 238.527344 231.539062 L 228.953125 231.539062 L 228.953125 221.953125 L 238.527344 221.953125 Z M 238.527344 216.863281 L 238.527344 221.792969 L 228.953125 221.792969 L 228.953125 212.207031 L 238.527344 212.207031 Z M 238.527344 212.046875 L 228.953125 212.046875 L 228.953125 202.460938 L 238.527344 202.460938 Z M 238.527344 202.300781 L 228.953125 202.300781 L 228.953125 192.714844 L 238.527344 192.714844 Z M 238.527344 192.554688 L 228.953125 192.554688 L 228.953125 182.96875 L 238.527344 182.96875 Z M 248.265625 294.835938 L 248.265625 299.761719 L 238.691406 299.761719 L 238.691406 290.179688 L 248.265625 290.179688 Z M 248.265625 290.015625 L 238.691406 290.015625 L 238.691406 280.433594 L 248.265625 280.433594 Z M 248.265625 280.269531 L 238.691406 280.269531 L 238.691406 270.6875 L 248.265625 270.6875 Z M 248.265625 270.523438 L 238.691406 270.523438 L 238.691406 260.941406 L 248.265625 260.941406 Z M 248.265625 255.851562 L 248.265625 260.777344 L 238.691406 260.777344 L 238.691406 251.195312 L 248.265625 251.195312 Z M 248.265625 251.03125 L 238.691406 251.03125 L 238.691406 241.449219 L 248.265625 241.449219 Z M 248.265625 241.285156 L 238.691406 241.285156 L 238.691406 231.703125 L 248.265625 231.703125 Z M 248.265625 231.539062 L 238.691406 231.539062 L 238.691406 221.953125 L 248.265625 221.953125 Z M 248.265625 216.863281 L 248.265625 221.792969 L 238.691406 221.792969 L 238.691406 212.207031 L 248.265625 212.207031 Z M 248.265625 212.046875 L 238.691406 212.046875 L 238.691406 202.460938 L 248.265625 202.460938 Z M 258 294.835938 L 258 299.761719 L 248.425781 299.761719 L 248.425781 290.179688 L 258 290.179688 Z M 258 290.015625 L 248.425781 290.015625 L 248.425781 280.433594 L 258 280.433594 Z M 258 280.269531 L 248.425781 280.269531 L 248.425781 270.6875 L 258 270.6875 Z M 258 270.523438 L 248.425781 270.523438 L 248.425781 260.941406 L 258 260.941406 Z M 258 255.851562 L 258 260.777344 L 248.425781 260.777344 L 248.425781 251.195312 L 258 251.195312 Z M 258 251.03125 L 248.425781 251.03125 L 248.425781 241.449219 L 258 241.449219 Z M 258 241.285156 L 248.425781 241.285156 L 248.425781 231.703125 L 258 231.703125 Z M 258 231.539062 L 248.425781 231.539062 L 248.425781 221.953125 L 258 221.953125 Z M 258 216.863281 L 258 221.792969 L 248.425781 221.792969 L 248.425781 212.207031 L 258 212.207031 Z M 267.738281 294.835938 L 267.738281 299.761719 L 258.164062 299.761719 L 258.164062 290.179688 L 267.738281 290.179688 Z M 267.738281 290.015625 L 258.164062 290.015625 L 258.164062 280.433594 L 267.738281 280.433594 Z M 267.738281 280.269531 L 258.164062 280.269531 L 258.164062 270.6875 L 267.738281 270.6875 Z M 267.738281 270.523438 L 258.164062 270.523438 L 258.164062 260.941406 L 267.738281 260.941406 Z M 267.738281 255.851562 L 267.738281 260.777344 L 258.164062 260.777344 L 258.164062 251.195312 L 267.738281 251.195312 Z M 267.738281 251.03125 L 258.164062 251.03125 L 258.164062 241.449219 L 267.738281 241.449219 Z M 267.738281 241.285156 L 258.164062 241.285156 L 258.164062 231.703125 L 267.738281 231.703125 Z M 277.472656 294.835938 L 277.472656 299.761719 L 267.898438 299.761719 L 267.898438 290.179688 L 277.472656 290.179688 Z M 277.472656 290.015625 L 267.898438 290.015625 L 267.898438 280.433594 L 277.472656 280.433594 Z M 277.472656 280.269531 L 267.898438 280.269531 L 267.898438 270.6875 L 277.472656 270.6875 Z M 277.472656 270.523438 L 267.898438 270.523438 L 267.898438 260.941406 L 277.472656 260.941406 Z M 277.472656 255.851562 L 277.472656 260.777344 L 267.898438 260.777344 L 267.898438 251.195312 L 277.472656 251.195312 Z M 277.472656 251.03125 L 267.898438 251.03125 L 267.898438 241.449219 L 277.472656 241.449219 Z M 287.207031 294.835938 L 287.207031 299.761719 L 277.636719 299.761719 L 277.636719 290.179688 L 287.207031 290.179688 Z M 287.207031 290.015625 L 277.636719 290.015625 L 277.636719 280.433594 L 287.207031 280.433594 Z M 287.207031 280.269531 L 277.636719 280.269531 L 277.636719 270.6875 L 287.207031 270.6875 Z M 287.207031 270.523438 L 277.636719 270.523438 L 277.636719 260.941406 L 287.207031 260.941406 Z M 287.207031 255.851562 L 287.207031 260.777344 L 277.636719 260.777344 L 277.636719 251.195312 L 287.207031 251.195312 Z M 296.945312 294.835938 L 296.945312 299.761719 L 287.371094 299.761719 L 287.371094 290.179688 L 296.945312 290.179688 Z M 296.945312 290.015625 L 287.371094 290.015625 L 287.371094 280.433594 L 296.945312 280.433594 Z M 296.945312 280.269531 L 287.371094 280.269531 L 287.371094 270.6875 L 296.945312 270.6875 Z M 296.945312 270.523438 L 287.371094 270.523438 L 287.371094 260.941406 L 296.945312 260.941406 Z M 296.945312 255.851562 L 296.945312 260.777344 L 287.371094 260.777344 L 287.371094 251.195312 L 296.945312 251.195312 Z M 306.679688 294.835938 L 306.679688 299.761719 L 297.105469 299.761719 L 297.105469 290.179688 L 306.679688 290.179688 Z M 306.679688 290.015625 L 297.105469 290.015625 L 297.105469 280.433594 L 306.679688 280.433594 Z M 306.679688 280.269531 L 297.105469 280.269531 L 297.105469 270.6875 L 306.679688 270.6875 Z M 306.679688 270.523438 L 297.105469 270.523438 L 297.105469 260.941406 L 306.679688 260.941406 Z M 306.679688 255.851562 L 306.679688 260.777344 L 297.105469 260.777344 L 297.105469 251.195312 L 306.679688 251.195312 Z M 306.679688 255.851562 " fill-opacity="1" fill-rule="nonzero"/></g><path fill="#353535" d="M 192.121094 264.136719 L 174.269531 264.136719 C 172.867188 264.132812 171.480469 263.988281 170.105469 263.703125 C 169.582031 263.609375 169.132812 263.375 168.753906 262.996094 C 168.539062 262.78125 167.941406 262.023438 167.347656 260.234375 C 166.753906 258.449219 166.589844 256.988281 166.589844 252.980469 L 166.589844 210.3125 L 170.269531 207.390625 L 203.101562 263.484375 C 204.886719 266.464844 206.722656 269.277344 208.5625 271.769531 C 210.546875 274.457031 212.78125 276.910156 215.269531 279.132812 C 217.96875 281.460938 220.925781 283.390625 224.140625 284.925781 C 227.835938 286.648438 231.675781 287.929688 235.660156 288.769531 C 240.480469 289.832031 245.347656 290.535156 250.265625 290.882812 C 255.621094 291.371094 261.894531 291.585938 268.925781 291.585938 L 290.019531 291.585938 L 290.019531 264.136719 L 282.449219 264.136719 C 280.214844 264.15625 278.015625 263.882812 275.851562 263.324219 C 273.820312 262.742188 271.945312 261.839844 270.226562 260.617188 C 267.957031 259.011719 265.917969 257.152344 264.113281 255.039062 C 261.523438 251.96875 259.179688 248.71875 257.082031 245.292969 L 209.265625 169.269531 L 241.71875 133.535156 C 244.804688 130.121094 247.832031 126.980469 250.753906 124.222656 C 253.40625 121.683594 256.253906 119.390625 259.300781 117.34375 C 261.886719 115.617188 264.648438 114.226562 267.574219 113.175781 C 270.292969 112.242188 273.085938 111.789062 275.957031 111.820312 L 282.449219 111.820312 L 282.449219 84.75 L 195.960938 84.75 L 195.960938 111.820312 L 202.453125 111.820312 C 208.238281 111.820312 210.511719 112.472656 211.160156 112.742188 C 211.210938 112.902344 211.230469 113.0625 211.214844 113.230469 C 211.199219 114.59375 211 115.925781 210.617188 117.234375 C 210.15625 118.910156 209.492188 120.5 208.617188 122 C 207.417969 124.171875 206.03125 126.210938 204.453125 128.121094 C 202.613281 130.5 200.234375 133.210938 197.421875 136.1875 L 166.589844 169.867188 L 166.589844 123.191406 C 166.589844 119.238281 167.023438 117.074219 167.402344 115.9375 C 167.78125 114.800781 168.484375 113.5 168.753906 113.230469 C 169.132812 112.851562 169.582031 112.617188 170.105469 112.523438 C 171.476562 112.191406 172.863281 112.03125 174.269531 112.039062 L 192.121094 112.039062 L 192.121094 84.75 L 85.511719 84.75 L 85.511719 112.039062 L 103.414062 112.039062 C 104.730469 112.035156 106.027344 112.179688 107.308594 112.472656 C 107.925781 112.617188 108.464844 112.90625 108.929688 113.335938 C 109.46875 113.957031 109.847656 114.660156 110.066406 115.449219 C 110.390625 116.476562 110.824219 118.480469 110.824219 122.164062 L 110.824219 254.441406 C 110.824219 257.960938 110.390625 259.964844 110.066406 260.996094 C 109.867188 261.734375 109.527344 262.402344 109.039062 262.996094 C 108.574219 263.371094 108.054688 263.625 107.472656 263.753906 C 106.132812 264.03125 104.78125 264.15625 103.414062 264.136719 L 85.511719 264.136719 L 85.511719 291.585938 L 192.121094 291.585938 Z M 192.121094 264.136719 " fill-opacity="0.5" fill-rule="nonzero"/><path fill="#ffffff" d="M 271.632812 286.171875 C 264.652344 286.171875 258.378906 285.957031 253.078125 285.46875 C 248.253906 285.113281 243.476562 284.429688 238.746094 283.410156 C 234.875 282.582031 231.140625 281.335938 227.546875 279.675781 C 224.480469 278.179688 221.648438 276.320312 219.058594 274.097656 C 216.640625 271.964844 214.476562 269.601562 212.566406 267.003906 C 210.78125 264.566406 208.941406 261.804688 207.210938 258.882812 L 173.460938 201.164062 L 167.671875 205.710938 L 167.671875 249.191406 C 167.671875 253.414062 168.160156 255.742188 168.539062 256.988281 C 168.917969 258.234375 169.835938 259.855469 170.324219 260.34375 C 170.917969 260.964844 171.636719 261.34375 172.484375 261.480469 C 173.964844 261.8125 175.460938 261.976562 176.976562 261.96875 L 193.203125 261.96875 L 193.203125 286.171875 L 89.839844 286.171875 L 89.839844 261.96875 L 106.117188 261.96875 C 107.59375 261.972656 109.054688 261.828125 110.5 261.535156 C 111.359375 261.386719 112.113281 261.023438 112.773438 260.453125 C 113.539062 259.671875 114.0625 258.75 114.339844 257.691406 C 114.945312 255.382812 115.214844 253.039062 115.152344 250.652344 L 115.152344 118.375 C 115.152344 114.472656 114.664062 112.308594 114.339844 111.171875 C 114.058594 110.066406 113.519531 109.109375 112.71875 108.300781 C 112.050781 107.695312 111.273438 107.300781 110.390625 107.109375 C 108.988281 106.773438 107.5625 106.613281 106.117188 106.625 L 89.839844 106.625 L 89.839844 82.582031 L 193.203125 82.582031 L 193.203125 106.625 L 176.976562 106.625 C 175.460938 106.617188 173.964844 106.777344 172.484375 107.109375 C 171.648438 107.269531 170.925781 107.648438 170.324219 108.246094 C 169.835938 108.734375 169.1875 109.710938 168.539062 111.660156 C 167.886719 113.609375 167.671875 115.234375 167.671875 119.402344 L 167.671875 170.246094 L 201.316406 133.480469 C 204.199219 130.449219 206.582031 127.742188 208.457031 125.359375 C 210.050781 123.332031 211.492188 121.203125 212.78125 118.96875 C 213.679688 117.351562 214.382812 115.65625 214.890625 113.878906 C 215.316406 112.429688 215.535156 110.949219 215.539062 109.4375 C 215.539062 107.976562 215.109375 107.761719 214.785156 107.597656 C 214.460938 107.4375 211.648438 106.40625 205.15625 106.40625 L 200.289062 106.40625 L 200.289062 82.582031 L 283.53125 82.582031 L 283.53125 106.40625 L 278.664062 106.40625 C 275.613281 106.398438 272.636719 106.867188 269.738281 107.816406 C 266.683594 108.910156 263.816406 110.371094 261.136719 112.199219 C 258.003906 114.300781 255.066406 116.648438 252.320312 119.238281 C 249.402344 122.054688 246.316406 125.195312 243.234375 128.660156 L 209.914062 165.316406 L 258.433594 242.367188 C 260.566406 245.867188 262.949219 249.1875 265.574219 252.332031 C 267.488281 254.535156 269.632812 256.484375 272.011719 258.179688 C 273.894531 259.476562 275.929688 260.449219 278.121094 261.101562 C 280.425781 261.714844 282.769531 262 285.152344 261.96875 L 291.101562 261.96875 L 291.101562 286.171875 Z M 271.632812 286.171875 " fill-opacity="1" fill-rule="nonzero"/><path fill="#0f3768" d="M 189.414062 265.757812 L 176.976562 265.757812 C 175.171875 265.777344 173.386719 265.597656 171.621094 265.21875 C 170.097656 264.875 168.78125 264.15625 167.671875 263.050781 C 166.371094 261.644531 165.453125 260.019531 164.914062 258.179688 C 164.210938 255.957031 163.886719 252.980469 163.886719 249.191406 L 163.886719 203.871094 L 174.542969 195.53125 L 210.457031 256.933594 C 212.132812 259.75 213.863281 262.402344 215.59375 264.785156 C 217.355469 267.140625 219.335938 269.289062 221.542969 271.226562 C 223.855469 273.257812 226.398438 274.9375 229.171875 276.261719 C 232.511719 277.777344 235.976562 278.933594 239.554688 279.730469 C 244.132812 280.671875 248.746094 281.339844 253.402344 281.730469 C 258.597656 282.164062 264.761719 282.382812 271.632812 282.382812 L 287.316406 282.382812 L 287.316406 265.757812 L 285.152344 265.757812 C 282.417969 265.789062 279.734375 265.445312 277.09375 264.730469 C 274.507812 263.992188 272.109375 262.855469 269.902344 261.320312 C 267.238281 259.464844 264.855469 257.300781 262.761719 254.820312 C 259.976562 251.539062 257.472656 248.054688 255.242188 244.371094 L 205.210938 164.882812 L 240.421875 126.117188 C 243.558594 122.597656 246.695312 119.347656 249.726562 116.476562 C 252.605469 113.730469 255.707031 111.257812 259.027344 109.058594 C 261.984375 107.066406 265.140625 105.457031 268.492188 104.242188 C 271.792969 103.136719 275.183594 102.597656 278.664062 102.617188 L 279.746094 102.617188 L 279.746094 86.371094 L 204.074219 86.371094 L 204.074219 102.617188 L 205.15625 102.617188 C 210.511719 102.617188 214.351562 103.15625 216.460938 104.1875 C 218.570312 105.214844 219.328125 106.894531 219.328125 109.4375 C 219.3125 111.292969 219.058594 113.117188 218.570312 114.90625 C 217.957031 116.964844 217.125 118.933594 216.082031 120.808594 C 214.699219 123.214844 213.148438 125.507812 211.429688 127.6875 C 209.429688 130.175781 206.996094 132.992188 204.128906 136.023438 L 163.886719 179.992188 L 163.886719 119.402344 C 163.886719 115.664062 164.210938 112.632812 164.914062 110.46875 C 165.617188 108.300781 166.535156 106.675781 167.671875 105.59375 C 168.78125 104.492188 170.097656 103.769531 171.621094 103.429688 C 173.382812 103.03125 175.167969 102.832031 176.976562 102.832031 L 189.414062 102.832031 L 189.414062 86.371094 L 93.625 86.371094 L 93.625 102.832031 L 106.117188 102.832031 C 107.855469 102.828125 109.566406 103.027344 111.257812 103.429688 C 112.777344 103.753906 114.113281 104.4375 115.261719 105.484375 C 116.535156 106.753906 117.417969 108.25 117.910156 109.980469 C 118.667969 112.726562 119.011719 115.523438 118.9375 118.375 L 118.9375 250.652344 C 119.007812 253.445312 118.664062 256.191406 117.910156 258.882812 C 117.261719 260.832031 116.394531 262.347656 115.261719 263.324219 C 114.105469 264.304688 112.789062 264.953125 111.3125 265.273438 C 109.597656 265.605469 107.867188 265.769531 106.117188 265.757812 L 93.625 265.757812 L 93.625 282.382812 L 189.414062 282.382812 Z M 189.414062 265.757812 " fill-opacity="1" fill-rule="nonzero"/></svg>